<?xml version="1.0" encoding="UTF-8" standalone="no"?>
<!-- Created with Inkscape (http://www.inkscape.org/) -->

<svg
   xmlns:dc="http://purl.org/dc/elements/1.1/"
   xmlns:cc="http://creativecommons.org/ns#"
   xmlns:rdf="http://www.w3.org/1999/02/22-rdf-syntax-ns#"
   xmlns:svg="http://www.w3.org/2000/svg"
   xmlns="http://www.w3.org/2000/svg"
   xmlns:sodipodi="http://sodipodi.sourceforge.net/DTD/sodipodi-0.dtd"
   xmlns:inkscape="http://www.inkscape.org/namespaces/inkscape"
   width="76.449081"
   height="69.309471"
   viewBox="0 0 20.227152 18.33813"
   version="1.1"
   id="svg8"
   inkscape:version="0.92.5 (2060ec1f9f, 2020-04-08)"
   sodipodi:docname="grabbers.svg">
  <defs
     id="defs2" />
  <sodipodi:namedview
     id="base"
     pagecolor="#ffffff"
     bordercolor="#666666"
     borderopacity="1.0"
     inkscape:pageopacity="0.0"
     inkscape:pageshadow="2"
     inkscape:zoom="16"
     inkscape:cx="36.487641"
     inkscape:cy="9.335098"
     inkscape:document-units="mm"
     inkscape:current-layer="layer1"
     showgrid="true"
     fit-margin-top="2"
     fit-margin-left="2"
     fit-margin-right="2"
     fit-margin-bottom="2"
     units="px"
     inkscape:window-width="1920"
     inkscape:window-height="1009"
     inkscape:window-x="0"
     inkscape:window-y="34"
     inkscape:window-maximized="1"
     inkscape:snap-global="true"
     inkscape:snap-nodes="false"
     inkscape:snap-others="false"
     inkscape:snap-bbox="true"
     inkscape:bbox-paths="true"
     inkscape:bbox-nodes="true"
     inkscape:snap-bbox-edge-midpoints="false"
     inkscape:snap-bbox-midpoints="false">
    <inkscape:grid
       type="xygrid"
       id="grid817"
       empspacing="4"
       originx="-27.819194"
       originy="-174.94015" />
  </sodipodi:namedview>
  <metadata
     id="metadata5">
    <rdf:RDF>
      <cc:Work
         rdf:about="">
        <dc:format>image/svg+xml</dc:format>
        <dc:type
           rdf:resource="http://purl.org/dc/dcmitype/StillImage" />
        <dc:title />
      </cc:Work>
    </rdf:RDF>
  </metadata>
  <g
     inkscape:label="Capa 1"
     inkscape:groupmode="layer"
     id="layer1"
     transform="translate(-27.8192,-103.72164)">
    <rect
       style="opacity:1;fill:#473b78;fill-opacity:1;stroke:#4da6ff;stroke-width:0.2649734;stroke-linecap:round;stroke-linejoin:miter;stroke-miterlimit:4;stroke-dasharray:none;stroke-dashoffset:0;stroke-opacity:1"
       id="rect815"
       width="1.8516933"
       height="2.6458597"
       x="28.574987"
       y="104.38329"
       ry="0.52916402" />
    <rect
       y="104.38373"
       x="31.220808"
       height="2.6454618"
       width="1.8517119"
       id="rect821"
       style="opacity:1;fill:#4a5cb0;fill-opacity:1;stroke:#4da6ff;stroke-width:0.26458332;stroke-linecap:round;stroke-linejoin:miter;stroke-miterlimit:4;stroke-dasharray:none;stroke-dashoffset:0;stroke-opacity:1"
       ry="0.52908444" />
    <rect
       style="opacity:1;fill:#322947;fill-opacity:1;stroke:#473b78;stroke-width:0.26458332;stroke-linecap:round;stroke-linejoin:miter;stroke-miterlimit:4;stroke-dasharray:none;stroke-dashoffset:0;stroke-opacity:1"
       id="rect823"
       width="1.8517119"
       height="2.6454618"
       x="33.866646"
       y="104.38373"
       ry="0.52908444" />
    <rect
       style="opacity:1;fill:#473b78;fill-opacity:1;stroke:#4da6ff;stroke-width:0.26458332;stroke-linecap:round;stroke-linejoin:miter;stroke-miterlimit:4;stroke-dasharray:none;stroke-dashoffset:0;stroke-opacity:1"
       id="rect815-5"
       width="1.8517119"
       height="2.6454618"
       x="104.9129"
       y="-39.157936"
       ry="0.52908444"
       transform="rotate(90)" />
    <rect
       y="-42.597519"
       x="104.91289"
       height="2.6454618"
       width="1.8517119"
       id="rect821-9"
       style="opacity:1;fill:#4a5cb0;fill-opacity:1;stroke:#4da6ff;stroke-width:0.26458332;stroke-linecap:round;stroke-linejoin:miter;stroke-miterlimit:4;stroke-dasharray:none;stroke-dashoffset:0;stroke-opacity:1"
       ry="0.52908444"
       transform="rotate(90)" />
    <rect
       style="opacity:1;fill:#322947;fill-opacity:1;stroke:#473b78;stroke-width:0.26458332;stroke-linecap:round;stroke-linejoin:miter;stroke-miterlimit:4;stroke-dasharray:none;stroke-dashoffset:0;stroke-opacity:1"
       id="rect823-8"
       width="1.8517119"
       height="2.6454618"
       x="104.91289"
       y="-46.037102"
       ry="0.52908444"
       transform="rotate(90)" />
    <path
       style="opacity:1;fill:#4da6ff;fill-opacity:1;stroke:#4da6ff;stroke-width:0.21181859;stroke-linecap:round;stroke-linejoin:miter;stroke-miterlimit:4;stroke-dasharray:none;stroke-dashoffset:0;stroke-opacity:1"
       d="m 28.839584,108.61663 h 1.142921 c 0.211053,0 0.380963,0.1466 0.380963,0.32872 v 0.98618 c 0,0.1821 -0.16991,0.32872 -0.380963,0.32872 h -1.142921 c -0.211053,0 -0.380964,-0.14662 -0.380964,-0.32872 v -0.98618 c 0,-0.18212 0.169911,-0.32872 0.380964,-0.32872 z"
       id="rect815-4"
       inkscape:connector-curvature="0" />
    <path
       id="path891"
       d="m 28.839584,107.82288 h 1.134233 c 0.209449,0 0.378068,0.16862 0.378068,0.37807 v 1.13423 c 0,0.20945 -0.168619,0.37807 -0.378068,0.37807 h -1.134233 c -0.209449,0 -0.378069,-0.16862 -0.378069,-0.37807 v -1.13423 c 0,-0.20945 0.16862,-0.37807 0.378069,-0.37807 z"
       style="opacity:1;fill:#473b78;fill-opacity:1;stroke:#4da6ff;stroke-width:0.22629753;stroke-linecap:round;stroke-linejoin:miter;stroke-miterlimit:4;stroke-dasharray:none;stroke-dashoffset:0;stroke-opacity:1"
       inkscape:connector-curvature="0" />
    <path
       id="path891-4"
       d="m 31.467148,108.49797 h 1.094879 c 0.202181,0 0.364949,0.16277 0.364949,0.36495 v 1.09488 c 0,0.20217 -0.162768,0.36495 -0.364949,0.36495 h -1.094879 c -0.202182,0 -0.364951,-0.16278 -0.364951,-0.36495 v -1.09488 c 0,-0.20218 0.162769,-0.36495 0.364951,-0.36495 z"
       style="opacity:1;fill:#473b78;fill-opacity:1;stroke:#4da6ff;stroke-width:0.29188815;stroke-linecap:round;stroke-linejoin:miter;stroke-miterlimit:4;stroke-dasharray:none;stroke-dashoffset:0;stroke-opacity:1"
       inkscape:connector-curvature="0" />
    <path
       style="fill:none;stroke:#4da6ff;stroke-width:0.26499999;stroke-linecap:round;stroke-linejoin:round;stroke-miterlimit:4;stroke-dasharray:none;stroke-opacity:1"
       d="m 31.61645,109.54246 0.264583,0.26458 0.529167,-0.79375"
       id="path908"
       inkscape:connector-curvature="0"
       sodipodi:nodetypes="ccc" />
    <path
       style="opacity:1;fill:#473b78;fill-opacity:1;stroke:#4da6ff;stroke-width:0.23203364;stroke-linecap:round;stroke-linejoin:round;stroke-miterlimit:4;stroke-dasharray:none;stroke-dashoffset:0;stroke-opacity:1"
       id="path910"
       sodipodi:type="arc"
       sodipodi:cx="34.526875"
       sodipodi:cy="109.54268"
       sodipodi:rx="0.81149775"
       sodipodi:ry="0.81018442"
       sodipodi:start="1.1558321"
       sodipodi:end="1.1556401"
       sodipodi:open="true"
       d="m 34.854036,110.2841 a 0.81149775,0.81018442 0 0 1 -1.069772,-0.41475 0.81149775,0.81018442 0 0 1 0.415378,-1.06806 0.81149775,0.81018442 0 0 1 1.069812,0.41465 0.81149775,0.81018442 0 0 1 -0.415276,1.0681" />
    <path
       style="opacity:1;fill:#4da6ff;fill-opacity:1;stroke:#4da6ff;stroke-width:0.26499999;stroke-linecap:round;stroke-linejoin:round;stroke-miterlimit:4;stroke-dasharray:none;stroke-dashoffset:0;stroke-opacity:1"
       id="path912"
       sodipodi:type="arc"
       sodipodi:cx="34.528301"
       sodipodi:cy="109.5425"
       sodipodi:rx="0.26458332"
       sodipodi:ry="0.26458332"
       sodipodi:start="1.1558321"
       sodipodi:end="1.1556401"
       sodipodi:open="true"
       d="m 34.63497,109.78463 a 0.26458332,0.26458332 0 0 1 -0.348792,-0.13545 0.26458332,0.26458332 0 0 1 0.135431,-0.34879 0.26458332,0.26458332 0 0 1 0.348805,0.13541 0.26458332,0.26458332 0 0 1 -0.135398,0.34881" />
    <path
       d="m 37.235269,110.28411 a 0.81149775,0.81018442 0 0 1 -1.069772,-0.41476 0.81149775,0.81018442 0 0 1 0.415378,-1.06806 0.81149775,0.81018442 0 0 1 1.069812,0.41466 0.81149775,0.81018442 0 0 1 -0.415276,1.0681"
       sodipodi:open="true"
       sodipodi:end="1.1556401"
       sodipodi:start="1.1558321"
       sodipodi:ry="0.81018442"
       sodipodi:rx="0.81149775"
       sodipodi:cy="109.54269"
       sodipodi:cx="36.908108"
       sodipodi:type="arc"
       id="path914"
       style="opacity:1;fill:#4da6ff;fill-opacity:1;stroke:#4da6ff;stroke-width:0.23203364;stroke-linecap:round;stroke-linejoin:round;stroke-miterlimit:4;stroke-dasharray:none;stroke-dashoffset:0;stroke-opacity:1" />
    <path
       style="opacity:1;fill:#473b78;fill-opacity:1;stroke:#4da6ff;stroke-width:0.23203364;stroke-linecap:round;stroke-linejoin:round;stroke-miterlimit:4;stroke-dasharray:none;stroke-dashoffset:0;stroke-opacity:1"
       id="path916"
       sodipodi:type="arc"
       sodipodi:cx="36.908108"
       sodipodi:cy="109.27811"
       sodipodi:rx="0.81149775"
       sodipodi:ry="0.81018442"
       sodipodi:start="1.1558321"
       sodipodi:end="1.1556401"
       sodipodi:open="true"
       d="m 37.235269,110.01953 a 0.81149775,0.81018442 0 0 1 -1.069772,-0.41476 0.81149775,0.81018442 0 0 1 0.415378,-1.06806 0.81149775,0.81018442 0 0 1 1.069812,0.41466 0.81149775,0.81018442 0 0 1 -0.415276,1.0681" />
    <path
       style="fill:#322947;stroke:#322947;stroke-width:0.26458332px;stroke-linecap:round;stroke-linejoin:round;stroke-opacity:1"
       d="m 39.300142,108.75258 h -0.79375 l 0.79375,1.32291 0.79375,-1.32291 z"
       id="path920"
       inkscape:connector-curvature="0" />
    <path
       style="fill:#322947;stroke:#322947;stroke-width:0.26458332px;stroke-linecap:round;stroke-linejoin:round;stroke-opacity:1"
       d="m 41.932793,109.54632 v 0.79375 l 1.32291,-0.79375 -1.32291,-0.79375 z"
       id="path920-7"
       inkscape:connector-curvature="0" />
    <path
       style="opacity:1;fill:#322947;fill-opacity:1;stroke:#4da6ff;stroke-width:0.79374999;stroke-linecap:round;stroke-linejoin:round;stroke-miterlimit:4;stroke-dasharray:none;stroke-dashoffset:0;stroke-opacity:1"
       d="m 30.536091,111.44565 v 0.001 a 1.8165222,2.066281 0 0 0 -0.695388,0.17446 1.8165222,2.066281 0 0 0 -0.930094,2.72381 1.8165222,2.066281 0 0 0 1.625482,1.23056 v 0.002 h 0.06385 4.966508 v -6.3e-4 a 1.8165222,2.066281 0 0 0 0.723225,-0.17445 h 5.47e-4 a 1.8165222,2.066281 0 0 0 0.929547,-2.72441 1.8165222,2.066281 0 0 0 -1.653319,-1.23119 v -0.002 z"
       id="path837"
       inkscape:connector-curvature="0" />
    <path
       style="opacity:1;fill:#4da6ff;fill-opacity:1;stroke:none;stroke-width:0.26499999;stroke-linecap:round;stroke-linejoin:round;stroke-miterlimit:4;stroke-dasharray:none;stroke-dashoffset:0;stroke-opacity:1"
       id="path843"
       sodipodi:type="arc"
       sodipodi:cx="35.057297"
       sodipodi:cy="113.51138"
       sodipodi:rx="1.190625"
       sodipodi:ry="1.190625"
       sodipodi:start="1.1558321"
       sodipodi:end="1.1556401"
       sodipodi:open="true"
       d="m 35.537306,114.60096 a 1.190625,1.190625 0 0 1 -1.569564,-0.60952 1.190625,1.190625 0 0 1 0.609441,-1.56959 1.190625,1.190625 0 0 1 1.569622,0.60937 1.190625,1.190625 0 0 1 -0.60929,1.56965" />
    <g
       aria-label="on"
       style="font-style:normal;font-variant:normal;font-weight:normal;font-stretch:normal;font-size:2.82222223px;line-height:1.25;font-family:Ubuntu;-inkscape-font-specification:'Ubuntu, Normal';font-variant-ligatures:normal;font-variant-caps:normal;font-variant-numeric:normal;font-feature-settings:normal;text-align:start;letter-spacing:0px;word-spacing:0px;writing-mode:lr-tb;text-anchor:start;fill:#4da6ff;fill-opacity:1;stroke:none;stroke-width:0.26458332"
       id="text847"
       transform="translate(-3.4614471,0.21794069)">
      <path
         d="m 34.714747,113.4024 q 0,0.17498 -0.0508,0.31609 -0.0508,0.14111 -0.143933,0.24271 -0.09031,0.1016 -0.217311,0.15804 -0.127,0.0536 -0.276578,0.0536 -0.149578,0 -0.276578,-0.0536 -0.127,-0.0564 -0.220133,-0.15804 -0.09031,-0.1016 -0.141111,-0.24271 -0.0508,-0.14111 -0.0508,-0.31609 0,-0.17216 0.0508,-0.31327 0.0508,-0.14393 0.141111,-0.24553 0.09313,-0.1016 0.220133,-0.15522 0.127,-0.0564 0.276578,-0.0564 0.149578,0 0.276578,0.0564 0.127,0.0536 0.217311,0.15522 0.09313,0.1016 0.143933,0.24553 0.0508,0.14111 0.0508,0.31327 z m -0.273756,0 q 0,-0.24836 -0.112888,-0.39229 -0.110067,-0.14676 -0.301978,-0.14676 -0.191911,0 -0.3048,0.14676 -0.110067,0.14393 -0.110067,0.39229 0,0.24835 0.110067,0.39511 0.112889,0.14393 0.3048,0.14393 0.191911,0 0.301978,-0.14393 0.112888,-0.14676 0.112888,-0.39511 z"
         style="font-style:normal;font-variant:normal;font-weight:normal;font-stretch:normal;font-size:2.82222223px;font-family:Ubuntu;-inkscape-font-specification:'Ubuntu, Normal';font-variant-ligatures:normal;font-variant-caps:normal;font-variant-numeric:normal;font-feature-settings:normal;text-align:start;writing-mode:lr-tb;text-anchor:start;fill:#4da6ff;stroke-width:0.26458332"
         id="path851"
         inkscape:connector-curvature="0" />
      <path
         d="m 35.084453,112.71095 q 0.09031,-0.0226 0.239889,-0.048 0.149578,-0.0254 0.344311,-0.0254 0.174978,0 0.290689,0.0508 0.115711,0.048 0.183444,0.13829 0.07056,0.0875 0.09878,0.21166 0.02822,0.12418 0.02822,0.27376 v 0.82409 H 36.00732 v -0.76765 q 0,-0.13546 -0.01976,-0.23142 -0.01693,-0.096 -0.05927,-0.15522 -0.04233,-0.0593 -0.112889,-0.0847 -0.07056,-0.0282 -0.174978,-0.0282 -0.04233,0 -0.08749,0.003 -0.04516,0.003 -0.08749,0.008 -0.03951,0.003 -0.07338,0.008 -0.03104,0.006 -0.04516,0.008 v 1.23896 h -0.262467 z"
         style="font-style:normal;font-variant:normal;font-weight:normal;font-stretch:normal;font-size:2.82222223px;font-family:Ubuntu;-inkscape-font-specification:'Ubuntu, Normal';font-variant-ligatures:normal;font-variant-caps:normal;font-variant-numeric:normal;font-feature-settings:normal;text-align:start;writing-mode:lr-tb;text-anchor:start;fill:#4da6ff;stroke-width:0.26458332"
         id="path853"
         inkscape:connector-curvature="0" />
    </g>
    <path
       style="opacity:1;fill:#322947;fill-opacity:1;stroke:#4a5cb0;stroke-width:0.79374999;stroke-linecap:round;stroke-linejoin:round;stroke-miterlimit:4;stroke-dasharray:none;stroke-dashoffset:0;stroke-opacity:1"
       d="m 40.279351,111.39559 v 0.001 a 1.8165222,2.066281 0 0 0 -0.695388,0.17446 1.8165222,2.066281 0 0 0 -0.930094,2.72381 1.8165222,2.066281 0 0 0 1.625482,1.23056 v 0.002 h 0.06385 4.966508 v -6.4e-4 a 1.8165222,2.066281 0 0 0 0.723225,-0.17445 h 5.56e-4 a 1.8165222,2.066281 0 0 0 0.929538,-2.72442 1.8165222,2.066281 0 0 0 -1.653319,-1.23119 v -0.002 z"
       id="path837-6"
       inkscape:connector-curvature="0" />
    <path
       style="opacity:1;fill:#4a5cb0;fill-opacity:1;stroke:none;stroke-width:0.26499999;stroke-linecap:round;stroke-linejoin:round;stroke-miterlimit:4;stroke-dasharray:none;stroke-dashoffset:0;stroke-opacity:1"
       id="path843-7"
       sodipodi:type="arc"
       sodipodi:cx="40.613548"
       sodipodi:cy="113.51138"
       sodipodi:rx="1.190625"
       sodipodi:ry="1.190625"
       sodipodi:start="1.1558321"
       sodipodi:end="1.1556401"
       sodipodi:open="true"
       d="m 41.093557,114.60096 a 1.190625,1.190625 0 0 1 -1.569563,-0.60952 1.190625,1.190625 0 0 1 0.609441,-1.56959 1.190625,1.190625 0 0 1 1.569622,0.60937 1.190625,1.190625 0 0 1 -0.609291,1.56965" />
    <g
       aria-label="off"
       style="font-style:normal;font-weight:normal;font-size:10.58333302px;line-height:1.25;font-family:sans-serif;letter-spacing:0px;word-spacing:0px;fill:#000000;fill-opacity:1;stroke:none;stroke-width:0.26458332"
       id="text885"
       transform="translate(2.6133836,1.0687421e-5)">
      <path
         d="m 41.064749,113.66696 q 0,0.17498 -0.0508,0.31609 -0.0508,0.14111 -0.143933,0.24271 -0.09031,0.1016 -0.217311,0.15805 -0.127,0.0536 -0.276578,0.0536 -0.149578,0 -0.276578,-0.0536 -0.127,-0.0564 -0.220133,-0.15805 -0.09031,-0.1016 -0.141111,-0.24271 -0.0508,-0.14111 -0.0508,-0.31609 0,-0.17215 0.0508,-0.31326 0.0508,-0.14394 0.141111,-0.24554 0.09313,-0.1016 0.220133,-0.15522 0.127,-0.0564 0.276578,-0.0564 0.149578,0 0.276578,0.0564 0.127,0.0536 0.217311,0.15522 0.09313,0.1016 0.143933,0.24554 0.0508,0.14111 0.0508,0.31326 z m -0.273755,0 q 0,-0.24835 -0.112889,-0.39229 -0.110067,-0.14675 -0.301978,-0.14675 -0.191911,0 -0.3048,0.14675 -0.110067,0.14394 -0.110067,0.39229 0,0.24836 0.110067,0.39511 0.112889,0.14394 0.3048,0.14394 0.191911,0 0.301978,-0.14394 0.112889,-0.14675 0.112889,-0.39511 z"
         style="font-style:normal;font-variant:normal;font-weight:normal;font-stretch:normal;font-size:2.82222223px;font-family:Ubuntu;-inkscape-font-specification:'Ubuntu, Normal';font-variant-ligatures:normal;font-variant-caps:normal;font-variant-numeric:normal;font-feature-settings:normal;text-align:start;writing-mode:lr-tb;text-anchor:start;fill:#4a5cb0;stroke-width:0.26458332"
         id="path913"
         inkscape:connector-curvature="0" />
      <path
         d="m 42.007367,112.2107 q 0.115711,0 0.197555,0.0169 0.08467,0.0169 0.118533,0.031 l -0.04798,0.22578 q -0.03387,-0.0169 -0.09596,-0.031 -0.06209,-0.0169 -0.1524,-0.0169 -0.183444,0 -0.256822,0.1016 -0.07338,0.0988 -0.07338,0.26812 v 0.127 h 0.564445 v 0.22013 h -0.564445 v 1.24742 h -0.262467 v -1.6002 q 0,-0.28222 0.138289,-0.43462 0.138289,-0.15522 0.434623,-0.15522 z m 1.100666,0 q 0.115711,0 0.197556,0.0169 0.08467,0.0169 0.118533,0.031 l -0.04798,0.22578 q -0.03387,-0.0169 -0.09595,-0.031 -0.06209,-0.0169 -0.1524,-0.0169 -0.183445,0 -0.256822,0.1016 -0.07338,0.0988 -0.07338,0.26812 v 0.127 h 0.564444 v 0.22013 H 42.79759 v 1.24742 h -0.262467 v -1.6002 q 0,-0.28222 0.138289,-0.43462 0.138289,-0.15522 0.434622,-0.15522 z"
         style="font-style:normal;font-variant:normal;font-weight:normal;font-stretch:normal;font-size:2.82222223px;font-family:Ubuntu;-inkscape-font-specification:'Ubuntu, Normal';font-variant-ligatures:normal;font-variant-caps:normal;font-variant-numeric:normal;font-feature-settings:normal;text-align:start;writing-mode:lr-tb;text-anchor:start;fill:#4a5cb0;stroke-width:0.26458332"
         id="path915"
         inkscape:connector-curvature="0" />
    </g>
    <path
       inkscape:connector-curvature="0"
       id="path887"
       d="m 30.536091,117.0019 v 10e-4 a 1.8165222,2.066281 0 0 0 -0.695388,0.17446 1.8165222,2.066281 0 0 0 -0.930094,2.72381 1.8165222,2.066281 0 0 0 1.625482,1.23056 v 0.002 h 0.06385 4.966508 v -6.3e-4 a 1.8165222,2.066281 0 0 0 0.723225,-0.17445 h 5.47e-4 a 1.8165222,2.066281 0 0 0 0.929547,-2.72441 1.8165222,2.066281 0 0 0 -1.653319,-1.23119 v -0.002 z"
       style="opacity:0.51000001;fill:#322947;fill-opacity:1;stroke:#4da6ff;stroke-width:0.79374999;stroke-linecap:round;stroke-linejoin:round;stroke-miterlimit:4;stroke-dasharray:none;stroke-dashoffset:0;stroke-opacity:1" />
    <path
       d="m 35.537306,120.1572 a 1.190625,1.190625 0 0 1 -1.569564,-0.60951 1.190625,1.190625 0 0 1 0.609441,-1.56959 1.190625,1.190625 0 0 1 1.569622,0.60936 1.190625,1.190625 0 0 1 -0.60929,1.56965"
       sodipodi:open="true"
       sodipodi:end="1.1556401"
       sodipodi:start="1.1558321"
       sodipodi:ry="1.190625"
       sodipodi:rx="1.190625"
       sodipodi:cy="119.06763"
       sodipodi:cx="35.057297"
       sodipodi:type="arc"
       id="path889"
       style="opacity:0.51000001;fill:#4da6ff;fill-opacity:1;stroke:none;stroke-width:0.26499999;stroke-linecap:round;stroke-linejoin:round;stroke-miterlimit:4;stroke-dasharray:none;stroke-dashoffset:0;stroke-opacity:1" />
    <g
       transform="translate(-3.4395808,5.7741907)"
       id="g896"
       style="font-style:normal;font-variant:normal;font-weight:normal;font-stretch:normal;font-size:2.82222223px;line-height:1.25;font-family:Ubuntu;-inkscape-font-specification:'Ubuntu, Normal';font-variant-ligatures:normal;font-variant-caps:normal;font-variant-numeric:normal;font-feature-settings:normal;text-align:start;letter-spacing:0px;word-spacing:0px;writing-mode:lr-tb;text-anchor:start;opacity:0.51000001;fill:#4da6ff;fill-opacity:1;stroke:none;stroke-width:0.26458332"
       aria-label="on">
      <path
         inkscape:connector-curvature="0"
         id="path892"
         style="font-style:normal;font-variant:normal;font-weight:normal;font-stretch:normal;font-size:2.82222223px;font-family:Ubuntu;-inkscape-font-specification:'Ubuntu, Normal';font-variant-ligatures:normal;font-variant-caps:normal;font-variant-numeric:normal;font-feature-settings:normal;text-align:start;writing-mode:lr-tb;text-anchor:start;fill:#4da6ff;stroke-width:0.26458332"
         d="m 34.714747,113.4024 q 0,0.17498 -0.0508,0.31609 -0.0508,0.14111 -0.143933,0.24271 -0.09031,0.1016 -0.217311,0.15804 -0.127,0.0536 -0.276578,0.0536 -0.149578,0 -0.276578,-0.0536 -0.127,-0.0564 -0.220133,-0.15804 -0.09031,-0.1016 -0.141111,-0.24271 -0.0508,-0.14111 -0.0508,-0.31609 0,-0.17216 0.0508,-0.31327 0.0508,-0.14393 0.141111,-0.24553 0.09313,-0.1016 0.220133,-0.15522 0.127,-0.0564 0.276578,-0.0564 0.149578,0 0.276578,0.0564 0.127,0.0536 0.217311,0.15522 0.09313,0.1016 0.143933,0.24553 0.0508,0.14111 0.0508,0.31327 z m -0.273756,0 q 0,-0.24836 -0.112888,-0.39229 -0.110067,-0.14676 -0.301978,-0.14676 -0.191911,0 -0.3048,0.14676 -0.110067,0.14393 -0.110067,0.39229 0,0.24835 0.110067,0.39511 0.112889,0.14393 0.3048,0.14393 0.191911,0 0.301978,-0.14393 0.112888,-0.14676 0.112888,-0.39511 z" />
      <path
         inkscape:connector-curvature="0"
         id="path894"
         style="font-style:normal;font-variant:normal;font-weight:normal;font-stretch:normal;font-size:2.82222223px;font-family:Ubuntu;-inkscape-font-specification:'Ubuntu, Normal';font-variant-ligatures:normal;font-variant-caps:normal;font-variant-numeric:normal;font-feature-settings:normal;text-align:start;writing-mode:lr-tb;text-anchor:start;fill:#4da6ff;stroke-width:0.26458332"
         d="m 35.084453,112.71095 q 0.09031,-0.0226 0.239889,-0.048 0.149578,-0.0254 0.344311,-0.0254 0.174978,0 0.290689,0.0508 0.115711,0.048 0.183444,0.13829 0.07056,0.0875 0.09878,0.21166 0.02822,0.12418 0.02822,0.27376 v 0.82409 H 36.00732 v -0.76765 q 0,-0.13546 -0.01976,-0.23142 -0.01693,-0.096 -0.05927,-0.15522 -0.04233,-0.0593 -0.112889,-0.0847 -0.07056,-0.0282 -0.174978,-0.0282 -0.04233,0 -0.08749,0.003 -0.04516,0.003 -0.08749,0.008 -0.03951,0.003 -0.07338,0.008 -0.03104,0.006 -0.04516,0.008 v 1.23896 h -0.262467 z" />
    </g>
    <path
       inkscape:connector-curvature="0"
       id="path898"
       d="m 40.279351,116.95184 v 10e-4 a 1.8165222,2.066281 0 0 0 -0.695388,0.17446 1.8165222,2.066281 0 0 0 -0.930094,2.72381 1.8165222,2.066281 0 0 0 1.625482,1.23056 v 0.002 h 0.06385 4.966508 v -6.4e-4 a 1.8165222,2.066281 0 0 0 0.723225,-0.17445 h 5.56e-4 a 1.8165222,2.066281 0 0 0 0.929538,-2.72442 1.8165222,2.066281 0 0 0 -1.653319,-1.23119 v -0.002 z"
       style="opacity:0.51000001;fill:#322947;fill-opacity:1;stroke:#4a5cb0;stroke-width:0.79374999;stroke-linecap:round;stroke-linejoin:round;stroke-miterlimit:4;stroke-dasharray:none;stroke-dashoffset:0;stroke-opacity:1" />
    <path
       d="m 41.093557,120.1572 a 1.190625,1.190625 0 0 1 -1.569563,-0.60951 1.190625,1.190625 0 0 1 0.609441,-1.56959 1.190625,1.190625 0 0 1 1.569622,0.60936 1.190625,1.190625 0 0 1 -0.609291,1.56965"
       sodipodi:open="true"
       sodipodi:end="1.1556401"
       sodipodi:start="1.1558321"
       sodipodi:ry="1.190625"
       sodipodi:rx="1.190625"
       sodipodi:cy="119.06763"
       sodipodi:cx="40.613548"
       sodipodi:type="arc"
       id="path900"
       style="opacity:0.51000001;fill:#4a5cb0;fill-opacity:1;stroke:none;stroke-width:0.26499999;stroke-linecap:round;stroke-linejoin:round;stroke-miterlimit:4;stroke-dasharray:none;stroke-dashoffset:0;stroke-opacity:1" />
    <g
       aria-label="off"
       style="font-style:normal;font-weight:normal;font-size:10.58333302px;line-height:1.25;font-family:sans-serif;letter-spacing:0px;word-spacing:0px;opacity:0.51000001;fill:#000000;fill-opacity:1;stroke:none;stroke-width:0.26458332"
       id="text904"
       transform="translate(2.6133836,0.11005402)">
      <path
         d="m 41.064749,119.22322 q 0,0.17497 -0.0508,0.31608 -0.0508,0.14112 -0.143933,0.24272 -0.09031,0.1016 -0.217311,0.15804 -0.127,0.0536 -0.276578,0.0536 -0.149578,0 -0.276578,-0.0536 -0.127,-0.0564 -0.220133,-0.15804 -0.09031,-0.1016 -0.141111,-0.24272 -0.0508,-0.14111 -0.0508,-0.31608 0,-0.17216 0.0508,-0.31327 0.0508,-0.14393 0.141111,-0.24553 0.09313,-0.1016 0.220133,-0.15523 0.127,-0.0564 0.276578,-0.0564 0.149578,0 0.276578,0.0564 0.127,0.0536 0.217311,0.15523 0.09313,0.1016 0.143933,0.24553 0.0508,0.14111 0.0508,0.31327 z m -0.273755,0 q 0,-0.24836 -0.112889,-0.39229 -0.110067,-0.14676 -0.301978,-0.14676 -0.191911,0 -0.3048,0.14676 -0.110067,0.14393 -0.110067,0.39229 0,0.24835 0.110067,0.39511 0.112889,0.14393 0.3048,0.14393 0.191911,0 0.301978,-0.14393 0.112889,-0.14676 0.112889,-0.39511 z"
         style="font-style:normal;font-variant:normal;font-weight:normal;font-stretch:normal;font-size:2.82222223px;font-family:Ubuntu;-inkscape-font-specification:'Ubuntu, Normal';font-variant-ligatures:normal;font-variant-caps:normal;font-variant-numeric:normal;font-feature-settings:normal;text-align:start;writing-mode:lr-tb;text-anchor:start;fill:#4a5cb0;stroke-width:0.26458332"
         id="path906"
         inkscape:connector-curvature="0" />
      <path
         d="m 42.007367,117.76695 q 0.115711,0 0.197555,0.0169 0.08467,0.0169 0.118533,0.0311 l -0.04798,0.22577 q -0.03387,-0.0169 -0.09596,-0.031 -0.06209,-0.0169 -0.1524,-0.0169 -0.183444,0 -0.256822,0.1016 -0.07338,0.0988 -0.07338,0.26811 v 0.127 h 0.564445 v 0.22013 h -0.564445 v 1.24742 h -0.262467 v -1.6002 q 0,-0.28222 0.138289,-0.43462 0.138289,-0.15522 0.434623,-0.15522 z m 1.100666,0 q 0.115711,0 0.197556,0.0169 0.08467,0.0169 0.118533,0.0311 l -0.04798,0.22577 q -0.03387,-0.0169 -0.09595,-0.031 -0.06209,-0.0169 -0.1524,-0.0169 -0.183445,0 -0.256822,0.1016 -0.07338,0.0988 -0.07338,0.26811 v 0.127 h 0.564444 v 0.22013 H 42.79759 v 1.24742 h -0.262467 v -1.6002 q 0,-0.28222 0.138289,-0.43462 0.138289,-0.15522 0.434622,-0.15522 z"
         style="font-style:normal;font-variant:normal;font-weight:normal;font-stretch:normal;font-size:2.82222223px;font-family:Ubuntu;-inkscape-font-specification:'Ubuntu, Normal';font-variant-ligatures:normal;font-variant-caps:normal;font-variant-numeric:normal;font-feature-settings:normal;text-align:start;writing-mode:lr-tb;text-anchor:start;fill:#4a5cb0;stroke-width:0.26458332"
         id="path909"
         inkscape:connector-curvature="0" />
    </g>
    <path
       style="fill:#4da6ff;stroke:none;stroke-width:0.26458332px;stroke-linecap:butt;stroke-linejoin:miter;stroke-opacity:1"
       d="m 45.508339,108.61659 -0.79375,0.79375 h 1.5875 z"
       id="path918"
       inkscape:connector-curvature="0" />
    <path
       style="fill:#4da6ff;stroke:none;stroke-width:0.26458332px;stroke-linecap:butt;stroke-linejoin:miter;stroke-opacity:1"
       d="m 44.714589,109.9395 0.79375,0.79375 0.79375,-0.79375 z"
       id="path923"
       inkscape:connector-curvature="0" />
  </g>
</svg>
